G04 (created by PCBNEW (2012-nov-02)-testing) date Thu 24 Jan 2013 15:35:23 EST*
%MOIN*%
G04 Gerber Fmt 3.4, Leading zero omitted, Abs format*
%FSLAX34Y34*%
G01*
G70*
G90*
G04 APERTURE LIST*
%ADD10C,0.006*%
%ADD11C,0.00590551*%
%ADD12C,0.0393701*%
%ADD13R,0.035X0.055*%
%ADD14C,0.11811*%
%ADD15C,0.314961*%
%ADD16C,0.0905512*%
%ADD17C,0.01*%
G04 APERTURE END LIST*
G54D10*
G54D11*
X90167Y-51299D02*
X98041Y-51299D01*
X90171Y-54187D02*
X90171Y-51312D01*
X85088Y-59344D02*
G75*
G03X90171Y-54190I-35J5118D01*
G74*
G01*
X79935Y-54226D02*
G75*
G03X85053Y-59344I5118J0D01*
G74*
G01*
X79935Y-51312D02*
X79935Y-54344D01*
X79541Y-51312D02*
X79935Y-51312D01*
X98047Y-40818D02*
X98047Y-51318D01*
X72047Y-40818D02*
X98047Y-40818D01*
X72047Y-51318D02*
X72047Y-40818D01*
X72047Y-51318D02*
X79547Y-51318D01*
G54D12*
X91994Y-44318D03*
X90994Y-44318D03*
X89994Y-44318D03*
X89994Y-42318D03*
X90994Y-42318D03*
X91994Y-42318D03*
X92994Y-44318D03*
X93994Y-44318D03*
X94994Y-44318D03*
X94994Y-42318D03*
X93994Y-42318D03*
X92994Y-42318D03*
G54D13*
X88908Y-44498D03*
X88158Y-44498D03*
G54D12*
X79047Y-46011D03*
X80047Y-46011D03*
X81047Y-46011D03*
X82047Y-46011D03*
X83047Y-46011D03*
X84047Y-46011D03*
X85047Y-46011D03*
X86047Y-46011D03*
X87047Y-46011D03*
X88047Y-46011D03*
X89047Y-46011D03*
X90047Y-46011D03*
X91047Y-46011D03*
G54D14*
X81903Y-52454D03*
X88202Y-52454D03*
G54D15*
X85053Y-54226D03*
G54D16*
X73800Y-48318D03*
X96294Y-48318D03*
G54D17*
X89994Y-44318D02*
X89087Y-44318D01*
X89087Y-44318D02*
X88908Y-44498D01*
X89994Y-44318D02*
X89994Y-44959D01*
X89994Y-44959D02*
X91047Y-46011D01*
X89994Y-42318D02*
X89994Y-44318D01*
X79047Y-46011D02*
X79047Y-46244D01*
X82350Y-46708D02*
X83047Y-46011D01*
X79511Y-46708D02*
X82350Y-46708D01*
X79047Y-46244D02*
X79511Y-46708D01*
X83047Y-46011D02*
X83078Y-46011D01*
X83078Y-46011D02*
X84592Y-44498D01*
X84592Y-44498D02*
X88158Y-44498D01*
X88158Y-44498D02*
X89204Y-43451D01*
X89204Y-43451D02*
X89204Y-42224D01*
X89204Y-42224D02*
X89775Y-41653D01*
X89775Y-41653D02*
X90329Y-41653D01*
X90329Y-41653D02*
X90994Y-42318D01*
X90994Y-42318D02*
X90994Y-44318D01*
X89047Y-46011D02*
X89047Y-46369D01*
X93994Y-45822D02*
X93994Y-44318D01*
X92787Y-47029D02*
X93994Y-45822D01*
X89707Y-47029D02*
X92787Y-47029D01*
X89047Y-46369D02*
X89707Y-47029D01*
X93994Y-42318D02*
X93994Y-44318D01*
X84047Y-46011D02*
X84047Y-45947D01*
X89401Y-45366D02*
X90047Y-46011D01*
X84628Y-45366D02*
X89401Y-45366D01*
X84047Y-45947D02*
X84628Y-45366D01*
X94994Y-42318D02*
X94994Y-44318D01*
X92994Y-42318D02*
X92994Y-44318D01*
X86047Y-46011D02*
X85047Y-46011D01*
X80047Y-46011D02*
X81047Y-46011D01*
X91994Y-42318D02*
X91994Y-44318D01*
G54D10*
G36*
X97767Y-51019D02*
X96997Y-51019D01*
X96997Y-48179D01*
X96890Y-47921D01*
X96693Y-47723D01*
X96434Y-47616D01*
X96155Y-47616D01*
X95896Y-47722D01*
X95699Y-47920D01*
X95591Y-48178D01*
X95591Y-48458D01*
X95698Y-48716D01*
X95895Y-48914D01*
X96154Y-49021D01*
X96433Y-49021D01*
X96692Y-48915D01*
X96889Y-48717D01*
X96997Y-48459D01*
X96997Y-48179D01*
X96997Y-51019D01*
X95441Y-51019D01*
X95441Y-44230D01*
X95373Y-44066D01*
X95294Y-43986D01*
X95294Y-42650D01*
X95373Y-42572D01*
X95441Y-42408D01*
X95441Y-42230D01*
X95373Y-42066D01*
X95247Y-41940D01*
X95083Y-41872D01*
X94905Y-41871D01*
X94741Y-41939D01*
X94615Y-42065D01*
X94547Y-42229D01*
X94547Y-42407D01*
X94615Y-42571D01*
X94694Y-42650D01*
X94694Y-43986D01*
X94615Y-44065D01*
X94547Y-44229D01*
X94547Y-44407D01*
X94615Y-44571D01*
X94741Y-44697D01*
X94905Y-44765D01*
X95082Y-44765D01*
X95247Y-44697D01*
X95373Y-44572D01*
X95441Y-44408D01*
X95441Y-44230D01*
X95441Y-51019D01*
X94441Y-51019D01*
X94441Y-44230D01*
X94373Y-44066D01*
X94294Y-43986D01*
X94294Y-42650D01*
X94373Y-42572D01*
X94441Y-42408D01*
X94441Y-42230D01*
X94373Y-42066D01*
X94247Y-41940D01*
X94083Y-41872D01*
X93905Y-41871D01*
X93741Y-41939D01*
X93615Y-42065D01*
X93547Y-42229D01*
X93547Y-42407D01*
X93615Y-42571D01*
X93694Y-42650D01*
X93694Y-43986D01*
X93615Y-44065D01*
X93547Y-44229D01*
X93547Y-44407D01*
X93615Y-44571D01*
X93694Y-44650D01*
X93694Y-45698D01*
X93441Y-45951D01*
X93441Y-44230D01*
X93373Y-44066D01*
X93294Y-43986D01*
X93294Y-42650D01*
X93373Y-42572D01*
X93441Y-42408D01*
X93441Y-42230D01*
X93373Y-42066D01*
X93247Y-41940D01*
X93083Y-41872D01*
X92905Y-41871D01*
X92741Y-41939D01*
X92615Y-42065D01*
X92547Y-42229D01*
X92547Y-42407D01*
X92615Y-42571D01*
X92694Y-42650D01*
X92694Y-43986D01*
X92615Y-44065D01*
X92547Y-44229D01*
X92547Y-44407D01*
X92615Y-44571D01*
X92741Y-44697D01*
X92905Y-44765D01*
X93082Y-44765D01*
X93247Y-44697D01*
X93373Y-44572D01*
X93441Y-44408D01*
X93441Y-44230D01*
X93441Y-45951D01*
X92663Y-46729D01*
X92441Y-46729D01*
X92441Y-44230D01*
X92373Y-44066D01*
X92294Y-43986D01*
X92294Y-42650D01*
X92373Y-42572D01*
X92441Y-42408D01*
X92441Y-42230D01*
X92373Y-42066D01*
X92247Y-41940D01*
X92083Y-41872D01*
X91905Y-41871D01*
X91741Y-41939D01*
X91615Y-42065D01*
X91547Y-42229D01*
X91547Y-42407D01*
X91615Y-42571D01*
X91694Y-42650D01*
X91694Y-43986D01*
X91615Y-44065D01*
X91547Y-44229D01*
X91547Y-44407D01*
X91615Y-44571D01*
X91741Y-44697D01*
X91905Y-44765D01*
X92082Y-44765D01*
X92247Y-44697D01*
X92373Y-44572D01*
X92441Y-44408D01*
X92441Y-44230D01*
X92441Y-46729D01*
X89831Y-46729D01*
X89396Y-46294D01*
X89425Y-46265D01*
X89494Y-46101D01*
X89494Y-45923D01*
X89465Y-45854D01*
X89600Y-45989D01*
X89600Y-46100D01*
X89668Y-46264D01*
X89793Y-46390D01*
X89957Y-46458D01*
X90135Y-46458D01*
X90300Y-46390D01*
X90425Y-46265D01*
X90494Y-46101D01*
X90494Y-45923D01*
X90465Y-45854D01*
X90600Y-45989D01*
X90600Y-46100D01*
X90668Y-46264D01*
X90793Y-46390D01*
X90957Y-46458D01*
X91135Y-46458D01*
X91300Y-46390D01*
X91425Y-46265D01*
X91494Y-46101D01*
X91494Y-45923D01*
X91446Y-45807D01*
X91446Y-44375D01*
X91446Y-42375D01*
X91433Y-42198D01*
X91390Y-42093D01*
X91305Y-42078D01*
X91234Y-42149D01*
X91234Y-42007D01*
X91220Y-41923D01*
X91051Y-41866D01*
X90874Y-41879D01*
X90768Y-41923D01*
X90754Y-42007D01*
X90994Y-42248D01*
X91234Y-42007D01*
X91234Y-42149D01*
X91065Y-42318D01*
X91305Y-42559D01*
X91390Y-42544D01*
X91446Y-42375D01*
X91446Y-44375D01*
X91433Y-44198D01*
X91390Y-44093D01*
X91305Y-44078D01*
X91234Y-44149D01*
X91234Y-44007D01*
X91234Y-42629D01*
X90994Y-42389D01*
X90923Y-42460D01*
X90923Y-42318D01*
X90683Y-42078D01*
X90598Y-42093D01*
X90542Y-42261D01*
X90555Y-42439D01*
X90598Y-42544D01*
X90683Y-42559D01*
X90923Y-42318D01*
X90923Y-42460D01*
X90754Y-42629D01*
X90768Y-42714D01*
X90937Y-42770D01*
X91114Y-42758D01*
X91220Y-42714D01*
X91234Y-42629D01*
X91234Y-44007D01*
X91220Y-43923D01*
X91051Y-43866D01*
X90874Y-43879D01*
X90768Y-43923D01*
X90754Y-44007D01*
X90994Y-44248D01*
X91234Y-44007D01*
X91234Y-44149D01*
X91065Y-44318D01*
X91305Y-44559D01*
X91390Y-44544D01*
X91446Y-44375D01*
X91446Y-45807D01*
X91426Y-45759D01*
X91300Y-45633D01*
X91234Y-45605D01*
X91234Y-44629D01*
X90994Y-44389D01*
X90923Y-44460D01*
X90923Y-44318D01*
X90683Y-44078D01*
X90598Y-44093D01*
X90542Y-44261D01*
X90555Y-44439D01*
X90598Y-44544D01*
X90683Y-44559D01*
X90923Y-44318D01*
X90923Y-44460D01*
X90754Y-44629D01*
X90768Y-44714D01*
X90937Y-44770D01*
X91114Y-44758D01*
X91220Y-44714D01*
X91234Y-44629D01*
X91234Y-45605D01*
X91136Y-45565D01*
X91024Y-45564D01*
X90294Y-44834D01*
X90294Y-44650D01*
X90373Y-44572D01*
X90441Y-44408D01*
X90441Y-44230D01*
X90373Y-44066D01*
X90294Y-43986D01*
X90294Y-42650D01*
X90373Y-42572D01*
X90441Y-42408D01*
X90441Y-42230D01*
X90373Y-42066D01*
X90247Y-41940D01*
X90083Y-41872D01*
X89905Y-41871D01*
X89741Y-41939D01*
X89615Y-42065D01*
X89547Y-42229D01*
X89547Y-42407D01*
X89615Y-42571D01*
X89694Y-42650D01*
X89694Y-43986D01*
X89662Y-44018D01*
X89232Y-44018D01*
X89225Y-44011D01*
X89133Y-43973D01*
X89033Y-43972D01*
X88683Y-43972D01*
X88592Y-44010D01*
X88533Y-44069D01*
X88474Y-44010D01*
X88382Y-43972D01*
X88270Y-43973D01*
X88208Y-44035D01*
X88208Y-44398D01*
X88208Y-44448D01*
X88208Y-44548D01*
X88208Y-44598D01*
X88208Y-44960D01*
X88270Y-45023D01*
X88382Y-45023D01*
X88474Y-44985D01*
X88533Y-44926D01*
X88591Y-44984D01*
X88683Y-45022D01*
X88782Y-45023D01*
X89132Y-45023D01*
X89224Y-44985D01*
X89295Y-44914D01*
X89333Y-44822D01*
X89333Y-44723D01*
X89333Y-44618D01*
X89662Y-44618D01*
X89694Y-44650D01*
X89694Y-44959D01*
X89717Y-45073D01*
X89782Y-45171D01*
X90204Y-45593D01*
X90136Y-45565D01*
X90024Y-45564D01*
X89613Y-45154D01*
X89516Y-45088D01*
X89401Y-45066D01*
X88108Y-45066D01*
X88108Y-44960D01*
X88108Y-44548D01*
X88108Y-44448D01*
X88108Y-44035D01*
X88045Y-43973D01*
X87933Y-43972D01*
X87842Y-44010D01*
X87771Y-44081D01*
X87733Y-44173D01*
X87733Y-44272D01*
X87733Y-44385D01*
X87795Y-44448D01*
X88108Y-44448D01*
X88108Y-44548D01*
X87795Y-44548D01*
X87733Y-44610D01*
X87733Y-44723D01*
X87733Y-44822D01*
X87771Y-44914D01*
X87842Y-44985D01*
X87933Y-45023D01*
X88045Y-45023D01*
X88108Y-44960D01*
X88108Y-45066D01*
X84628Y-45066D01*
X84513Y-45088D01*
X84416Y-45154D01*
X84005Y-45564D01*
X83958Y-45564D01*
X83794Y-45632D01*
X83668Y-45758D01*
X83600Y-45922D01*
X83600Y-46100D01*
X83668Y-46264D01*
X83793Y-46390D01*
X83957Y-46458D01*
X84135Y-46458D01*
X84300Y-46390D01*
X84425Y-46265D01*
X84494Y-46101D01*
X84494Y-45924D01*
X84752Y-45666D01*
X84761Y-45666D01*
X84668Y-45758D01*
X84600Y-45922D01*
X84600Y-46100D01*
X84668Y-46264D01*
X84793Y-46390D01*
X84957Y-46458D01*
X85135Y-46458D01*
X85300Y-46390D01*
X85379Y-46311D01*
X85715Y-46311D01*
X85793Y-46390D01*
X85957Y-46458D01*
X86135Y-46458D01*
X86300Y-46390D01*
X86425Y-46265D01*
X86494Y-46101D01*
X86494Y-45923D01*
X86426Y-45759D01*
X86333Y-45666D01*
X86761Y-45666D01*
X86668Y-45758D01*
X86600Y-45922D01*
X86600Y-46100D01*
X86668Y-46264D01*
X86793Y-46390D01*
X86957Y-46458D01*
X87135Y-46458D01*
X87300Y-46390D01*
X87425Y-46265D01*
X87494Y-46101D01*
X87494Y-45923D01*
X87426Y-45759D01*
X87333Y-45666D01*
X87761Y-45666D01*
X87668Y-45758D01*
X87600Y-45922D01*
X87600Y-46100D01*
X87668Y-46264D01*
X87793Y-46390D01*
X87957Y-46458D01*
X88135Y-46458D01*
X88300Y-46390D01*
X88425Y-46265D01*
X88494Y-46101D01*
X88494Y-45923D01*
X88426Y-45759D01*
X88333Y-45666D01*
X88761Y-45666D01*
X88668Y-45758D01*
X88600Y-45922D01*
X88600Y-46100D01*
X88668Y-46264D01*
X88747Y-46343D01*
X88747Y-46369D01*
X88770Y-46484D01*
X88835Y-46581D01*
X89494Y-47241D01*
X89494Y-47241D01*
X89592Y-47306D01*
X89707Y-47329D01*
X89707Y-47329D01*
X92787Y-47329D01*
X92787Y-47329D01*
X92902Y-47306D01*
X92902Y-47306D01*
X92999Y-47241D01*
X94206Y-46034D01*
X94206Y-46034D01*
X94271Y-45937D01*
X94294Y-45822D01*
X94294Y-45822D01*
X94294Y-44650D01*
X94373Y-44572D01*
X94441Y-44408D01*
X94441Y-44230D01*
X94441Y-51019D01*
X90167Y-51019D01*
X90060Y-51040D01*
X89969Y-51101D01*
X89909Y-51192D01*
X89887Y-51299D01*
X89891Y-51319D01*
X89891Y-51437D01*
X83499Y-51413D01*
X83499Y-46068D01*
X83486Y-45891D01*
X83442Y-45786D01*
X83358Y-45771D01*
X83287Y-45842D01*
X83287Y-45700D01*
X83272Y-45616D01*
X83104Y-45559D01*
X82927Y-45572D01*
X82821Y-45616D01*
X82806Y-45700D01*
X83047Y-45941D01*
X83287Y-45700D01*
X83287Y-45842D01*
X83117Y-46011D01*
X83358Y-46252D01*
X83442Y-46237D01*
X83499Y-46068D01*
X83499Y-51413D01*
X83287Y-51412D01*
X83287Y-46322D01*
X83047Y-46082D01*
X82976Y-46153D01*
X82976Y-46011D01*
X82736Y-45771D01*
X82651Y-45786D01*
X82595Y-45954D01*
X82607Y-46132D01*
X82651Y-46237D01*
X82736Y-46252D01*
X82976Y-46011D01*
X82976Y-46153D01*
X82806Y-46322D01*
X82821Y-46407D01*
X82990Y-46463D01*
X83167Y-46451D01*
X83272Y-46407D01*
X83287Y-46322D01*
X83287Y-51412D01*
X82494Y-51409D01*
X82494Y-45923D01*
X82426Y-45759D01*
X82300Y-45633D01*
X82136Y-45565D01*
X81958Y-45564D01*
X81794Y-45632D01*
X81668Y-45758D01*
X81600Y-45922D01*
X81600Y-46100D01*
X81668Y-46264D01*
X81793Y-46390D01*
X81957Y-46458D01*
X82135Y-46458D01*
X82300Y-46390D01*
X82425Y-46265D01*
X82494Y-46101D01*
X82494Y-45923D01*
X82494Y-51409D01*
X81494Y-51405D01*
X81494Y-45923D01*
X81426Y-45759D01*
X81300Y-45633D01*
X81136Y-45565D01*
X80958Y-45564D01*
X80794Y-45632D01*
X80715Y-45711D01*
X80379Y-45711D01*
X80300Y-45633D01*
X80136Y-45565D01*
X79958Y-45564D01*
X79794Y-45632D01*
X79668Y-45758D01*
X79600Y-45922D01*
X79600Y-46100D01*
X79668Y-46264D01*
X79793Y-46390D01*
X79957Y-46458D01*
X80135Y-46458D01*
X80300Y-46390D01*
X80379Y-46311D01*
X80715Y-46311D01*
X80793Y-46390D01*
X80957Y-46458D01*
X81135Y-46458D01*
X81300Y-46390D01*
X81425Y-46265D01*
X81494Y-46101D01*
X81494Y-45923D01*
X81494Y-51405D01*
X80214Y-51401D01*
X80214Y-51312D01*
X80193Y-51206D01*
X80132Y-51115D01*
X80042Y-51054D01*
X79935Y-51033D01*
X79541Y-51033D01*
X79511Y-51039D01*
X79499Y-51039D01*
X79499Y-46068D01*
X79486Y-45891D01*
X79442Y-45786D01*
X79358Y-45771D01*
X79287Y-45842D01*
X79287Y-45700D01*
X79272Y-45616D01*
X79104Y-45559D01*
X78927Y-45572D01*
X78821Y-45616D01*
X78806Y-45700D01*
X79047Y-45941D01*
X79287Y-45700D01*
X79287Y-45842D01*
X79117Y-46011D01*
X79358Y-46252D01*
X79442Y-46237D01*
X79499Y-46068D01*
X79499Y-51039D01*
X79287Y-51039D01*
X79287Y-46322D01*
X79047Y-46082D01*
X78976Y-46153D01*
X78976Y-46011D01*
X78736Y-45771D01*
X78651Y-45786D01*
X78595Y-45954D01*
X78607Y-46132D01*
X78651Y-46237D01*
X78736Y-46252D01*
X78976Y-46011D01*
X78976Y-46153D01*
X78806Y-46322D01*
X78821Y-46407D01*
X78990Y-46463D01*
X79167Y-46451D01*
X79272Y-46407D01*
X79287Y-46322D01*
X79287Y-51039D01*
X74502Y-51039D01*
X74502Y-48179D01*
X74396Y-47921D01*
X74198Y-47723D01*
X73940Y-47616D01*
X73660Y-47616D01*
X73402Y-47722D01*
X73204Y-47920D01*
X73097Y-48178D01*
X73097Y-48458D01*
X73203Y-48716D01*
X73401Y-48914D01*
X73659Y-49021D01*
X73939Y-49021D01*
X74197Y-48915D01*
X74395Y-48717D01*
X74502Y-48459D01*
X74502Y-48179D01*
X74502Y-51039D01*
X72326Y-51039D01*
X72326Y-41098D01*
X97767Y-41098D01*
X97767Y-51019D01*
X97767Y-51019D01*
G37*
G54D17*
X97767Y-51019D02*
X96997Y-51019D01*
X96997Y-48179D01*
X96890Y-47921D01*
X96693Y-47723D01*
X96434Y-47616D01*
X96155Y-47616D01*
X95896Y-47722D01*
X95699Y-47920D01*
X95591Y-48178D01*
X95591Y-48458D01*
X95698Y-48716D01*
X95895Y-48914D01*
X96154Y-49021D01*
X96433Y-49021D01*
X96692Y-48915D01*
X96889Y-48717D01*
X96997Y-48459D01*
X96997Y-48179D01*
X96997Y-51019D01*
X95441Y-51019D01*
X95441Y-44230D01*
X95373Y-44066D01*
X95294Y-43986D01*
X95294Y-42650D01*
X95373Y-42572D01*
X95441Y-42408D01*
X95441Y-42230D01*
X95373Y-42066D01*
X95247Y-41940D01*
X95083Y-41872D01*
X94905Y-41871D01*
X94741Y-41939D01*
X94615Y-42065D01*
X94547Y-42229D01*
X94547Y-42407D01*
X94615Y-42571D01*
X94694Y-42650D01*
X94694Y-43986D01*
X94615Y-44065D01*
X94547Y-44229D01*
X94547Y-44407D01*
X94615Y-44571D01*
X94741Y-44697D01*
X94905Y-44765D01*
X95082Y-44765D01*
X95247Y-44697D01*
X95373Y-44572D01*
X95441Y-44408D01*
X95441Y-44230D01*
X95441Y-51019D01*
X94441Y-51019D01*
X94441Y-44230D01*
X94373Y-44066D01*
X94294Y-43986D01*
X94294Y-42650D01*
X94373Y-42572D01*
X94441Y-42408D01*
X94441Y-42230D01*
X94373Y-42066D01*
X94247Y-41940D01*
X94083Y-41872D01*
X93905Y-41871D01*
X93741Y-41939D01*
X93615Y-42065D01*
X93547Y-42229D01*
X93547Y-42407D01*
X93615Y-42571D01*
X93694Y-42650D01*
X93694Y-43986D01*
X93615Y-44065D01*
X93547Y-44229D01*
X93547Y-44407D01*
X93615Y-44571D01*
X93694Y-44650D01*
X93694Y-45698D01*
X93441Y-45951D01*
X93441Y-44230D01*
X93373Y-44066D01*
X93294Y-43986D01*
X93294Y-42650D01*
X93373Y-42572D01*
X93441Y-42408D01*
X93441Y-42230D01*
X93373Y-42066D01*
X93247Y-41940D01*
X93083Y-41872D01*
X92905Y-41871D01*
X92741Y-41939D01*
X92615Y-42065D01*
X92547Y-42229D01*
X92547Y-42407D01*
X92615Y-42571D01*
X92694Y-42650D01*
X92694Y-43986D01*
X92615Y-44065D01*
X92547Y-44229D01*
X92547Y-44407D01*
X92615Y-44571D01*
X92741Y-44697D01*
X92905Y-44765D01*
X93082Y-44765D01*
X93247Y-44697D01*
X93373Y-44572D01*
X93441Y-44408D01*
X93441Y-44230D01*
X93441Y-45951D01*
X92663Y-46729D01*
X92441Y-46729D01*
X92441Y-44230D01*
X92373Y-44066D01*
X92294Y-43986D01*
X92294Y-42650D01*
X92373Y-42572D01*
X92441Y-42408D01*
X92441Y-42230D01*
X92373Y-42066D01*
X92247Y-41940D01*
X92083Y-41872D01*
X91905Y-41871D01*
X91741Y-41939D01*
X91615Y-42065D01*
X91547Y-42229D01*
X91547Y-42407D01*
X91615Y-42571D01*
X91694Y-42650D01*
X91694Y-43986D01*
X91615Y-44065D01*
X91547Y-44229D01*
X91547Y-44407D01*
X91615Y-44571D01*
X91741Y-44697D01*
X91905Y-44765D01*
X92082Y-44765D01*
X92247Y-44697D01*
X92373Y-44572D01*
X92441Y-44408D01*
X92441Y-44230D01*
X92441Y-46729D01*
X89831Y-46729D01*
X89396Y-46294D01*
X89425Y-46265D01*
X89494Y-46101D01*
X89494Y-45923D01*
X89465Y-45854D01*
X89600Y-45989D01*
X89600Y-46100D01*
X89668Y-46264D01*
X89793Y-46390D01*
X89957Y-46458D01*
X90135Y-46458D01*
X90300Y-46390D01*
X90425Y-46265D01*
X90494Y-46101D01*
X90494Y-45923D01*
X90465Y-45854D01*
X90600Y-45989D01*
X90600Y-46100D01*
X90668Y-46264D01*
X90793Y-46390D01*
X90957Y-46458D01*
X91135Y-46458D01*
X91300Y-46390D01*
X91425Y-46265D01*
X91494Y-46101D01*
X91494Y-45923D01*
X91446Y-45807D01*
X91446Y-44375D01*
X91446Y-42375D01*
X91433Y-42198D01*
X91390Y-42093D01*
X91305Y-42078D01*
X91234Y-42149D01*
X91234Y-42007D01*
X91220Y-41923D01*
X91051Y-41866D01*
X90874Y-41879D01*
X90768Y-41923D01*
X90754Y-42007D01*
X90994Y-42248D01*
X91234Y-42007D01*
X91234Y-42149D01*
X91065Y-42318D01*
X91305Y-42559D01*
X91390Y-42544D01*
X91446Y-42375D01*
X91446Y-44375D01*
X91433Y-44198D01*
X91390Y-44093D01*
X91305Y-44078D01*
X91234Y-44149D01*
X91234Y-44007D01*
X91234Y-42629D01*
X90994Y-42389D01*
X90923Y-42460D01*
X90923Y-42318D01*
X90683Y-42078D01*
X90598Y-42093D01*
X90542Y-42261D01*
X90555Y-42439D01*
X90598Y-42544D01*
X90683Y-42559D01*
X90923Y-42318D01*
X90923Y-42460D01*
X90754Y-42629D01*
X90768Y-42714D01*
X90937Y-42770D01*
X91114Y-42758D01*
X91220Y-42714D01*
X91234Y-42629D01*
X91234Y-44007D01*
X91220Y-43923D01*
X91051Y-43866D01*
X90874Y-43879D01*
X90768Y-43923D01*
X90754Y-44007D01*
X90994Y-44248D01*
X91234Y-44007D01*
X91234Y-44149D01*
X91065Y-44318D01*
X91305Y-44559D01*
X91390Y-44544D01*
X91446Y-44375D01*
X91446Y-45807D01*
X91426Y-45759D01*
X91300Y-45633D01*
X91234Y-45605D01*
X91234Y-44629D01*
X90994Y-44389D01*
X90923Y-44460D01*
X90923Y-44318D01*
X90683Y-44078D01*
X90598Y-44093D01*
X90542Y-44261D01*
X90555Y-44439D01*
X90598Y-44544D01*
X90683Y-44559D01*
X90923Y-44318D01*
X90923Y-44460D01*
X90754Y-44629D01*
X90768Y-44714D01*
X90937Y-44770D01*
X91114Y-44758D01*
X91220Y-44714D01*
X91234Y-44629D01*
X91234Y-45605D01*
X91136Y-45565D01*
X91024Y-45564D01*
X90294Y-44834D01*
X90294Y-44650D01*
X90373Y-44572D01*
X90441Y-44408D01*
X90441Y-44230D01*
X90373Y-44066D01*
X90294Y-43986D01*
X90294Y-42650D01*
X90373Y-42572D01*
X90441Y-42408D01*
X90441Y-42230D01*
X90373Y-42066D01*
X90247Y-41940D01*
X90083Y-41872D01*
X89905Y-41871D01*
X89741Y-41939D01*
X89615Y-42065D01*
X89547Y-42229D01*
X89547Y-42407D01*
X89615Y-42571D01*
X89694Y-42650D01*
X89694Y-43986D01*
X89662Y-44018D01*
X89232Y-44018D01*
X89225Y-44011D01*
X89133Y-43973D01*
X89033Y-43972D01*
X88683Y-43972D01*
X88592Y-44010D01*
X88533Y-44069D01*
X88474Y-44010D01*
X88382Y-43972D01*
X88270Y-43973D01*
X88208Y-44035D01*
X88208Y-44398D01*
X88208Y-44448D01*
X88208Y-44548D01*
X88208Y-44598D01*
X88208Y-44960D01*
X88270Y-45023D01*
X88382Y-45023D01*
X88474Y-44985D01*
X88533Y-44926D01*
X88591Y-44984D01*
X88683Y-45022D01*
X88782Y-45023D01*
X89132Y-45023D01*
X89224Y-44985D01*
X89295Y-44914D01*
X89333Y-44822D01*
X89333Y-44723D01*
X89333Y-44618D01*
X89662Y-44618D01*
X89694Y-44650D01*
X89694Y-44959D01*
X89717Y-45073D01*
X89782Y-45171D01*
X90204Y-45593D01*
X90136Y-45565D01*
X90024Y-45564D01*
X89613Y-45154D01*
X89516Y-45088D01*
X89401Y-45066D01*
X88108Y-45066D01*
X88108Y-44960D01*
X88108Y-44548D01*
X88108Y-44448D01*
X88108Y-44035D01*
X88045Y-43973D01*
X87933Y-43972D01*
X87842Y-44010D01*
X87771Y-44081D01*
X87733Y-44173D01*
X87733Y-44272D01*
X87733Y-44385D01*
X87795Y-44448D01*
X88108Y-44448D01*
X88108Y-44548D01*
X87795Y-44548D01*
X87733Y-44610D01*
X87733Y-44723D01*
X87733Y-44822D01*
X87771Y-44914D01*
X87842Y-44985D01*
X87933Y-45023D01*
X88045Y-45023D01*
X88108Y-44960D01*
X88108Y-45066D01*
X84628Y-45066D01*
X84513Y-45088D01*
X84416Y-45154D01*
X84005Y-45564D01*
X83958Y-45564D01*
X83794Y-45632D01*
X83668Y-45758D01*
X83600Y-45922D01*
X83600Y-46100D01*
X83668Y-46264D01*
X83793Y-46390D01*
X83957Y-46458D01*
X84135Y-46458D01*
X84300Y-46390D01*
X84425Y-46265D01*
X84494Y-46101D01*
X84494Y-45924D01*
X84752Y-45666D01*
X84761Y-45666D01*
X84668Y-45758D01*
X84600Y-45922D01*
X84600Y-46100D01*
X84668Y-46264D01*
X84793Y-46390D01*
X84957Y-46458D01*
X85135Y-46458D01*
X85300Y-46390D01*
X85379Y-46311D01*
X85715Y-46311D01*
X85793Y-46390D01*
X85957Y-46458D01*
X86135Y-46458D01*
X86300Y-46390D01*
X86425Y-46265D01*
X86494Y-46101D01*
X86494Y-45923D01*
X86426Y-45759D01*
X86333Y-45666D01*
X86761Y-45666D01*
X86668Y-45758D01*
X86600Y-45922D01*
X86600Y-46100D01*
X86668Y-46264D01*
X86793Y-46390D01*
X86957Y-46458D01*
X87135Y-46458D01*
X87300Y-46390D01*
X87425Y-46265D01*
X87494Y-46101D01*
X87494Y-45923D01*
X87426Y-45759D01*
X87333Y-45666D01*
X87761Y-45666D01*
X87668Y-45758D01*
X87600Y-45922D01*
X87600Y-46100D01*
X87668Y-46264D01*
X87793Y-46390D01*
X87957Y-46458D01*
X88135Y-46458D01*
X88300Y-46390D01*
X88425Y-46265D01*
X88494Y-46101D01*
X88494Y-45923D01*
X88426Y-45759D01*
X88333Y-45666D01*
X88761Y-45666D01*
X88668Y-45758D01*
X88600Y-45922D01*
X88600Y-46100D01*
X88668Y-46264D01*
X88747Y-46343D01*
X88747Y-46369D01*
X88770Y-46484D01*
X88835Y-46581D01*
X89494Y-47241D01*
X89494Y-47241D01*
X89592Y-47306D01*
X89707Y-47329D01*
X89707Y-47329D01*
X92787Y-47329D01*
X92787Y-47329D01*
X92902Y-47306D01*
X92902Y-47306D01*
X92999Y-47241D01*
X94206Y-46034D01*
X94206Y-46034D01*
X94271Y-45937D01*
X94294Y-45822D01*
X94294Y-45822D01*
X94294Y-44650D01*
X94373Y-44572D01*
X94441Y-44408D01*
X94441Y-44230D01*
X94441Y-51019D01*
X90167Y-51019D01*
X90060Y-51040D01*
X89969Y-51101D01*
X89909Y-51192D01*
X89887Y-51299D01*
X89891Y-51319D01*
X89891Y-51437D01*
X83499Y-51413D01*
X83499Y-46068D01*
X83486Y-45891D01*
X83442Y-45786D01*
X83358Y-45771D01*
X83287Y-45842D01*
X83287Y-45700D01*
X83272Y-45616D01*
X83104Y-45559D01*
X82927Y-45572D01*
X82821Y-45616D01*
X82806Y-45700D01*
X83047Y-45941D01*
X83287Y-45700D01*
X83287Y-45842D01*
X83117Y-46011D01*
X83358Y-46252D01*
X83442Y-46237D01*
X83499Y-46068D01*
X83499Y-51413D01*
X83287Y-51412D01*
X83287Y-46322D01*
X83047Y-46082D01*
X82976Y-46153D01*
X82976Y-46011D01*
X82736Y-45771D01*
X82651Y-45786D01*
X82595Y-45954D01*
X82607Y-46132D01*
X82651Y-46237D01*
X82736Y-46252D01*
X82976Y-46011D01*
X82976Y-46153D01*
X82806Y-46322D01*
X82821Y-46407D01*
X82990Y-46463D01*
X83167Y-46451D01*
X83272Y-46407D01*
X83287Y-46322D01*
X83287Y-51412D01*
X82494Y-51409D01*
X82494Y-45923D01*
X82426Y-45759D01*
X82300Y-45633D01*
X82136Y-45565D01*
X81958Y-45564D01*
X81794Y-45632D01*
X81668Y-45758D01*
X81600Y-45922D01*
X81600Y-46100D01*
X81668Y-46264D01*
X81793Y-46390D01*
X81957Y-46458D01*
X82135Y-46458D01*
X82300Y-46390D01*
X82425Y-46265D01*
X82494Y-46101D01*
X82494Y-45923D01*
X82494Y-51409D01*
X81494Y-51405D01*
X81494Y-45923D01*
X81426Y-45759D01*
X81300Y-45633D01*
X81136Y-45565D01*
X80958Y-45564D01*
X80794Y-45632D01*
X80715Y-45711D01*
X80379Y-45711D01*
X80300Y-45633D01*
X80136Y-45565D01*
X79958Y-45564D01*
X79794Y-45632D01*
X79668Y-45758D01*
X79600Y-45922D01*
X79600Y-46100D01*
X79668Y-46264D01*
X79793Y-46390D01*
X79957Y-46458D01*
X80135Y-46458D01*
X80300Y-46390D01*
X80379Y-46311D01*
X80715Y-46311D01*
X80793Y-46390D01*
X80957Y-46458D01*
X81135Y-46458D01*
X81300Y-46390D01*
X81425Y-46265D01*
X81494Y-46101D01*
X81494Y-45923D01*
X81494Y-51405D01*
X80214Y-51401D01*
X80214Y-51312D01*
X80193Y-51206D01*
X80132Y-51115D01*
X80042Y-51054D01*
X79935Y-51033D01*
X79541Y-51033D01*
X79511Y-51039D01*
X79499Y-51039D01*
X79499Y-46068D01*
X79486Y-45891D01*
X79442Y-45786D01*
X79358Y-45771D01*
X79287Y-45842D01*
X79287Y-45700D01*
X79272Y-45616D01*
X79104Y-45559D01*
X78927Y-45572D01*
X78821Y-45616D01*
X78806Y-45700D01*
X79047Y-45941D01*
X79287Y-45700D01*
X79287Y-45842D01*
X79117Y-46011D01*
X79358Y-46252D01*
X79442Y-46237D01*
X79499Y-46068D01*
X79499Y-51039D01*
X79287Y-51039D01*
X79287Y-46322D01*
X79047Y-46082D01*
X78976Y-46153D01*
X78976Y-46011D01*
X78736Y-45771D01*
X78651Y-45786D01*
X78595Y-45954D01*
X78607Y-46132D01*
X78651Y-46237D01*
X78736Y-46252D01*
X78976Y-46011D01*
X78976Y-46153D01*
X78806Y-46322D01*
X78821Y-46407D01*
X78990Y-46463D01*
X79167Y-46451D01*
X79272Y-46407D01*
X79287Y-46322D01*
X79287Y-51039D01*
X74502Y-51039D01*
X74502Y-48179D01*
X74396Y-47921D01*
X74198Y-47723D01*
X73940Y-47616D01*
X73660Y-47616D01*
X73402Y-47722D01*
X73204Y-47920D01*
X73097Y-48178D01*
X73097Y-48458D01*
X73203Y-48716D01*
X73401Y-48914D01*
X73659Y-49021D01*
X73939Y-49021D01*
X74197Y-48915D01*
X74395Y-48717D01*
X74502Y-48459D01*
X74502Y-48179D01*
X74502Y-51039D01*
X72326Y-51039D01*
X72326Y-41098D01*
X97767Y-41098D01*
X97767Y-51019D01*
M02*
