M48
;DRILL file {Pcbnew (2012-nov-02)-testing} date Thu 24 Jan 2013 15:48:38 EST
;FORMAT={-:-/ absolute / inch / decimal}
FMAT,2
INCH,TZ
T1C0.024
T2C0.091
T3C0.118
T4C0.315
%
G90
G05
M72
T1
X7.9047Y-4.6012
X8.0047Y-4.6012
X8.1047Y-4.6012
X8.2047Y-4.6012
X8.3047Y-4.6012
X8.4047Y-4.6012
X8.5047Y-4.6012
X8.6047Y-4.6012
X8.7047Y-4.6012
X8.8047Y-4.6012
X8.9047Y-4.6012
X8.9994Y-4.2319
X8.9994Y-4.4319
X9.0047Y-4.6012
X9.0994Y-4.2319
X9.0994Y-4.4319
X9.1047Y-4.6012
X9.1994Y-4.2319
X9.1994Y-4.4319
X9.2994Y-4.2319
X9.2994Y-4.4319
X9.3994Y-4.2319
X9.3994Y-4.4319
X9.4994Y-4.2319
X9.4994Y-4.4319
T2
X7.38Y-4.8319
X9.6294Y-4.8319
T3
X8.1904Y-5.2455
X8.8203Y-5.2455
T4
X8.5053Y-5.4226
T0
M30
