G04 (created by PCBNEW (2012-nov-02)-testing) date Thu 24 Jan 2013 15:35:23 EST*
%MOIN*%
G04 Gerber Fmt 3.4, Leading zero omitted, Abs format*
%FSLAX34Y34*%
G01*
G70*
G90*
G04 APERTURE LIST*
%ADD10C,0.006*%
%ADD11C,0.00492126*%
%ADD12C,0.00590551*%
%ADD13C,0.00787402*%
%ADD14C,0.005*%
G04 APERTURE END LIST*
G54D10*
G54D11*
X95149Y-41323D02*
X95056Y-41323D01*
X95168Y-41379D02*
X95103Y-41182D01*
X95037Y-41379D01*
X94934Y-41182D02*
X94896Y-41182D01*
X94878Y-41192D01*
X94859Y-41210D01*
X94850Y-41248D01*
X94850Y-41314D01*
X94859Y-41351D01*
X94878Y-41370D01*
X94896Y-41379D01*
X94934Y-41379D01*
X94953Y-41370D01*
X94971Y-41351D01*
X94981Y-41314D01*
X94981Y-41248D01*
X94971Y-41210D01*
X94953Y-41192D01*
X94934Y-41182D01*
X94159Y-41370D02*
X94131Y-41379D01*
X94084Y-41379D01*
X94065Y-41370D01*
X94056Y-41360D01*
X94046Y-41342D01*
X94046Y-41323D01*
X94056Y-41304D01*
X94065Y-41295D01*
X94084Y-41285D01*
X94121Y-41276D01*
X94140Y-41267D01*
X94149Y-41257D01*
X94159Y-41239D01*
X94159Y-41220D01*
X94149Y-41201D01*
X94140Y-41192D01*
X94121Y-41182D01*
X94074Y-41182D01*
X94046Y-41192D01*
X93925Y-41182D02*
X93887Y-41182D01*
X93868Y-41192D01*
X93850Y-41210D01*
X93840Y-41248D01*
X93840Y-41314D01*
X93850Y-41351D01*
X93868Y-41370D01*
X93887Y-41379D01*
X93925Y-41379D01*
X93943Y-41370D01*
X93962Y-41351D01*
X93971Y-41314D01*
X93971Y-41248D01*
X93962Y-41210D01*
X93943Y-41192D01*
X93925Y-41182D01*
X93117Y-41360D02*
X93126Y-41370D01*
X93154Y-41379D01*
X93173Y-41379D01*
X93201Y-41370D01*
X93220Y-41351D01*
X93229Y-41332D01*
X93239Y-41295D01*
X93239Y-41267D01*
X93229Y-41229D01*
X93220Y-41210D01*
X93201Y-41192D01*
X93173Y-41182D01*
X93154Y-41182D01*
X93126Y-41192D01*
X93117Y-41201D01*
X92939Y-41379D02*
X93032Y-41379D01*
X93032Y-41182D01*
X92873Y-41379D02*
X92873Y-41182D01*
X92760Y-41379D02*
X92845Y-41267D01*
X92760Y-41182D02*
X92873Y-41295D01*
X92103Y-41370D02*
X92074Y-41379D01*
X92028Y-41379D01*
X92009Y-41370D01*
X91999Y-41360D01*
X91990Y-41342D01*
X91990Y-41323D01*
X91999Y-41304D01*
X92009Y-41295D01*
X92028Y-41285D01*
X92065Y-41276D01*
X92084Y-41267D01*
X92093Y-41257D01*
X92103Y-41239D01*
X92103Y-41220D01*
X92093Y-41201D01*
X92084Y-41192D01*
X92065Y-41182D01*
X92018Y-41182D01*
X91990Y-41192D01*
X91906Y-41379D02*
X91906Y-41182D01*
X91149Y-41192D02*
X91168Y-41182D01*
X91196Y-41182D01*
X91224Y-41192D01*
X91243Y-41210D01*
X91253Y-41229D01*
X91262Y-41267D01*
X91262Y-41295D01*
X91253Y-41332D01*
X91243Y-41351D01*
X91224Y-41370D01*
X91196Y-41379D01*
X91178Y-41379D01*
X91149Y-41370D01*
X91140Y-41360D01*
X91140Y-41295D01*
X91178Y-41295D01*
X91056Y-41379D02*
X91056Y-41182D01*
X90943Y-41379D01*
X90943Y-41182D01*
X90850Y-41379D02*
X90850Y-41182D01*
X90803Y-41182D01*
X90775Y-41192D01*
X90756Y-41210D01*
X90746Y-41229D01*
X90737Y-41267D01*
X90737Y-41295D01*
X90746Y-41332D01*
X90756Y-41351D01*
X90775Y-41370D01*
X90803Y-41379D01*
X90850Y-41379D01*
X90334Y-41182D02*
X90268Y-41379D01*
X90203Y-41182D01*
X90053Y-41370D02*
X90071Y-41379D01*
X90109Y-41379D01*
X90128Y-41370D01*
X90137Y-41360D01*
X90146Y-41342D01*
X90146Y-41285D01*
X90137Y-41267D01*
X90128Y-41257D01*
X90109Y-41248D01*
X90071Y-41248D01*
X90053Y-41257D01*
X89884Y-41370D02*
X89903Y-41379D01*
X89940Y-41379D01*
X89959Y-41370D01*
X89968Y-41360D01*
X89978Y-41342D01*
X89978Y-41285D01*
X89968Y-41267D01*
X89959Y-41257D01*
X89940Y-41248D01*
X89903Y-41248D01*
X89884Y-41257D01*
G54D12*
X92921Y-43065D02*
X92996Y-43065D01*
X93034Y-43084D01*
X93053Y-43103D01*
X93090Y-43159D01*
X93109Y-43234D01*
X93109Y-43384D01*
X93090Y-43421D01*
X93071Y-43440D01*
X93034Y-43459D01*
X92959Y-43459D01*
X92921Y-43440D01*
X92903Y-43421D01*
X92884Y-43384D01*
X92884Y-43290D01*
X92903Y-43253D01*
X92921Y-43234D01*
X92959Y-43215D01*
X93034Y-43215D01*
X93071Y-43234D01*
X93090Y-43253D01*
X93109Y-43290D01*
X92715Y-43459D02*
X92715Y-43065D01*
X92565Y-43065D01*
X92528Y-43084D01*
X92509Y-43103D01*
X92490Y-43140D01*
X92490Y-43196D01*
X92509Y-43234D01*
X92528Y-43253D01*
X92565Y-43271D01*
X92715Y-43271D01*
X92321Y-43459D02*
X92321Y-43065D01*
X92134Y-43459D02*
X92134Y-43065D01*
X91909Y-43459D01*
X91909Y-43065D01*
G54D13*
X95500Y-41500D02*
X89500Y-41500D01*
X95500Y-44800D02*
X95500Y-41500D01*
X89500Y-44800D02*
X95500Y-44800D01*
X89500Y-41500D02*
X89500Y-44800D01*
G54D12*
X90167Y-51299D02*
X98041Y-51299D01*
X90171Y-54187D02*
X90171Y-51312D01*
X85088Y-59344D02*
G75*
G03X90171Y-54190I-35J5118D01*
G74*
G01*
X79935Y-54226D02*
G75*
G03X85053Y-59344I5118J0D01*
G74*
G01*
X79935Y-51312D02*
X79935Y-54344D01*
X79541Y-51312D02*
X79935Y-51312D01*
G54D14*
X97362Y-50789D02*
X97429Y-50694D01*
X97477Y-50789D02*
X97477Y-50589D01*
X97400Y-50589D01*
X97381Y-50599D01*
X97372Y-50608D01*
X97362Y-50627D01*
X97362Y-50656D01*
X97372Y-50675D01*
X97381Y-50684D01*
X97400Y-50694D01*
X97477Y-50694D01*
X97277Y-50684D02*
X97210Y-50684D01*
X97181Y-50789D02*
X97277Y-50789D01*
X97277Y-50589D01*
X97181Y-50589D01*
X97124Y-50589D02*
X97058Y-50789D01*
X96991Y-50589D01*
X96781Y-50732D02*
X96686Y-50732D01*
X96800Y-50789D02*
X96734Y-50589D01*
X96667Y-50789D01*
G54D12*
X98047Y-40818D02*
X98047Y-51318D01*
X72047Y-40818D02*
X98047Y-40818D01*
X72047Y-51318D02*
X72047Y-40818D01*
X72047Y-51318D02*
X79547Y-51318D01*
M02*
